<svg version="1.1" id="Layer_1" xmlns="http://www.w3.org/2000/svg" xmlns:xlink="http://www.w3.org/1999/xlink" x="0px" y="0px"
	 width="298px" height="345.1px" viewBox="0 0 298 345.1" style="enable-background:new 0 0 298 345.1;" xml:space="preserve">
<path d="M264.6,102.1l5.4-5.4c7.7-7.7,9.1-18.9,3.1-24.9c-6-6-17.2-4.6-24.9,3.1l-5.4,5.4c-21-17-46.6-28.4-74.7-32v-9.6h7.7
	c10.9,0,19.8-8.7,19.8-19.4S186.6,0,175.7,0h-53.3c-10.9,0-19.8,8.7-19.8,19.4s8.9,19.4,19.8,19.4h7.7v9.6
	C56.7,57.6,0,120.2,0,196.1c0,82.3,66.7,149,149,149c82.3,0,149-66.7,149-149C298,160.4,285.5,127.7,264.6,102.1z M149,306.3
	c-60.8,0-110.2-49.3-110.2-110.2c0-60.8,49.3-110.2,110.2-110.2c60.8,0,110.2,49.3,110.2,110.2C259.2,256.9,209.8,306.3,149,306.3z"
	/>
</svg>
