<?xml version="1.0" encoding="utf-8"?><svg xmlns="http://www.w3.org/2000/svg" xmlns:xlink="http://www.w3.org/1999/xlink"><symbol viewBox="0 0 42.08 47.04" id="android-logo" xmlns="http://www.w3.org/2000/svg"><path fill="#a4c639" d="M34.14 14H7.94V33.1a3.59 3.59 0 003.31 3.62v7.44a2.89 2.89 0 005.77 0v-7.42h8.06v7.42a2.89 2.89 0 005.77 0v-7.44a3.6 3.6 0 003.32-3.62V14.34l-.03-.34zM2.89 15.68a2.88 2.88 0 012.88 2.88v12.38a2.88 2.88 0 01-2.88 2.89A2.89 2.89 0 010 30.94V18.56a2.88 2.88 0 012.89-2.88zM39.2 15.68a2.88 2.88 0 012.88 2.88v12.38a2.88 2.88 0 01-2.88 2.89 2.89 2.89 0 01-2.89-2.89V18.56a2.88 2.88 0 012.89-2.88zM8 12h26a10.48 10.48 0 00-3.19-7.28L33.32.46A.31.31 0 0033.2 0a.31.31 0 00-.41.11l-2.37 4.15A16.15 16.15 0 0021 .86a16.41 16.41 0 00-9.37 3.4L9.3.15A.32.32 0 008.88 0a.32.32 0 00-.11.42l2.44 4.23A10.52 10.52 0 008 12zm17.32-5.2a1.5 1.5 0 013 0 1.5 1.5 0 01-3 0zm-11.14 0a1.5 1.5 0 013 0 1.5 1.5 0 01-3 0z"/></symbol><symbol viewBox="0 0 46.21 56.75" id="apple-logo" xmlns="http://www.w3.org/2000/svg"><path fill="#fff" d="M38.59 30.15a12.53 12.53 0 007.62 11.48 30.59 30.59 0 01-3.93 8.07c-2.36 3.46-4.82 6.91-8.69 7s-5-2.25-9.36-2.25-5.7 2.18-9.3 2.32S8.36 53 6 49.56c-4.87-7-8.6-19.91-3.6-28.59a13.91 13.91 0 0111.75-7.11c3.66-.07 7.12 2.46 9.36 2.46s6.45-3.05 10.87-2.6a13.28 13.28 0 0110.38 5.63c-.27.17-6.2 3.62-6.14 10.8M31.45 9.06A12.48 12.48 0 0034.4 0 12.75 12.75 0 0026 4.3c-1.83 2.12-3.44 5.52-3 8.78 3.19.25 6.44-1.62 8.42-4"/></symbol><symbol viewBox="0 0 21.53 41.37" id="arrow-desktop" xmlns="http://www.w3.org/2000/svg"><g data-name="Слой 2"><path d="M2 20.69L21.28 1.43a.83.83 0 000-1.18.84.84 0 00-1.19 0L.25 20.09a.84.84 0 000 1.19l19.84 19.85a.86.86 0 00.6.24.84.84 0 00.59-1.43z" data-name="Layer 1"/></g></symbol><symbol viewBox="0 0 253 253" id="diagram-fill-tablet" xmlns="http://www.w3.org/2000/svg"><defs><style>.dcls-1{fill:#231f20}</style></defs><g id="dСлой_2" data-name="Слой 2"><path class="dcls-1" d="M126.5 0A126.5 126.5 0 10253 126.5 126.51 126.51 0 00126.5 0zm0 237.22a110.17 110.17 0 11110.17-110.17A110.18 110.18 0 01126.5 237.22z" id="dLayer_1" data-name="Layer 1"/></g></symbol><symbol viewBox="0 0 8.67 18.94" id="facebook" xmlns="http://www.w3.org/2000/svg"><path d="M6.27 3.36h2.4V0H5.8C2.66.18 1.54 2.39 2 6.12H0v3.51h2v9.31h3.8V9.63h2.85V6.12H5.79c-.02-1.05-.04-2.41.48-2.76z"/></symbol><symbol viewBox="0 0 146.3 40.37" id="footer-logo-desktop" xmlns="http://www.w3.org/2000/svg"><defs><symbol id="fНовый_символ" data-name="Новый символ" viewBox="0 0 146.3 40.37"><path d="M71.87 18.66a1.29 1.29 0 011.26-1.29h7.18c5.09 0 8.44 2.71 8.44 7.15v.06c0 4.86-4.06 7.38-8.86 7.38h-5.47v6.82a1.28 1.28 0 11-2.55 0V18.66zm8.12 11c3.73 0 6.18-2 6.18-5v-.06c0-3.22-2.41-4.89-6-4.89h-5.7v9.91zM93.6 18.5a1.28 1.28 0 112.55 0v20.28a1.28 1.28 0 11-2.55 0zM102.74 18.53a1.28 1.28 0 011.26-1.25h.35a1.55 1.55 0 011.29.74l13.69 17.45v-17a1.24 1.24 0 112.48 0v20.35a1.14 1.14 0 01-1.16 1.18h-.13a1.71 1.71 0 01-1.32-.78l-14-17.86v17.46a1.26 1.26 0 01-1.2 1.25 1.24 1.24 0 01-1.22-1.25V18.53zM128.17 18.5a1.28 1.28 0 112.55 0v12.33l12.84-13.17a1.48 1.48 0 011-.45 1.28 1.28 0 011.23 1.26 1.29 1.29 0 01-.42.9l-8 7.92L146 37.85a1.44 1.44 0 01.35.94 1.31 1.31 0 01-1.35 1.28 1.21 1.21 0 01-1-.58L135.59 29l-4.87 4.86v4.9a1.27 1.27 0 11-2.54 0V18.5z"/><path fill="#d22856" d="M98.5 9.87a3.63 3.63 0 01-3.63-3.62 3.62 3.62 0 01-3.62 3.62 3.63 3.63 0 013.62 3.63 3.64 3.64 0 013.63-3.63zM43.09 19.31h.73a2.48 2.48 0 00-2.13-1.23 2 2 0 01-1.89-1.35 12.09 12.09 0 00-2.09.82h.19a2 2 0 012 2 2.83 2.83 0 010 .29 8.8 8.8 0 013.19-.53z"/><path fill="#d22856" d="M60.46 28L55.29 6.65C54.93 4.3 52.69 0 46.69 0a1.5 1.5 0 000 3c4.85 0 5.57 3.73 5.64 4.14l4.76 19.7H55a12 12 0 00-5.3-8.52 2.5 2.5 0 00-1.53 2.3 2.06 2.06 0 010 .26 9.21 9.21 0 014 7.47 9.3 9.3 0 01-.14 1.5 9 9 0 01-17.79 0 9.3 9.3 0 01-.14-1.5 9.34 9.34 0 01.95-4 2 2 0 01-1.86-2 .71.71 0 00-.19-.49 11.84 11.84 0 00-1.79 5h-1.86a12 12 0 00-23.86 0H3.42L8.19 7.14C8.25 6.73 9 3 13.83 3a1.5 1.5 0 000-3c-6 0-8.24 4.3-8.6 6.65L.05 28a1.42 1.42 0 001.43 1.82h4a12.65 12.65 0 00.38 1.83.75.75 0 00.1-.36 2 2 0 012-2 2.42 2.42 0 01.48.06 8.79 8.79 0 01-.07-1 9.29 9.29 0 01.13-1.5 9 9 0 0117.8 0 9.29 9.29 0 01.13 1.5A9 9 0 0112 35.58a2 2 0 01-1.3.49.75.75 0 00-.74.75 2 2 0 01-.18.81 11.91 11.91 0 007.61 2.74 12 12 0 0011.96-10.52h1.82a12 12 0 0023.85 0h4A1.41 1.41 0 0060.46 28z"/><path d="M58.29 25.94a4.5 4.5 0 01-4.5-4.5 4.51 4.51 0 01-4.5 4.5 4.5 4.5 0 014.5 4.5 4.49 4.49 0 014.5-4.5zM37.9 19.63a2.75 2.75 0 01-2.75-2.75 2.75 2.75 0 01-2.74 2.75 2.74 2.74 0 012.74 2.74 2.75 2.75 0 012.75-2.74zM10.73 34.07A2.75 2.75 0 018 31.32a2.75 2.75 0 01-2.74 2.75A2.75 2.75 0 018 36.82a2.75 2.75 0 012.73-2.75z"/></symbol><style>.fcls-1{fill:#283645}.fcls-2{fill:#d22856}</style></defs><g id="fСлой_2" data-name="Слой 2"><use width="146.3" height="40.37" xlink:href="#fНовый_символ" id="fLayer_2" data-name="Layer 2"/></g></symbol><symbol viewBox="0 0 146.3 40.38" id="footer-logo-tablet" xmlns="http://www.w3.org/2000/svg"><g id="gСлой_2" data-name="Слой 2"><g id="gLayer_1" data-name="Layer 1"><path d="M71.87 18.66a1.29 1.29 0 011.26-1.29h7.18c5.09 0 8.44 2.71 8.44 7.15v.06c0 4.86-4.06 7.38-8.86 7.38h-5.47v6.82a1.28 1.28 0 11-2.55 0V18.66zm8.12 11c3.73 0 6.18-2 6.18-5v-.06c0-3.22-2.41-4.89-6-4.89h-5.7v9.91zM93.6 18.5a1.28 1.28 0 112.55 0v20.28a1.28 1.28 0 11-2.55 0zM102.74 18.53a1.28 1.28 0 011.26-1.25h.35a1.55 1.55 0 011.29.74l13.69 17.45v-17a1.24 1.24 0 112.48 0v20.35a1.14 1.14 0 01-1.16 1.18h-.13a1.71 1.71 0 01-1.32-.78l-14-17.86v17.46a1.26 1.26 0 01-1.2 1.25 1.24 1.24 0 01-1.22-1.25V18.53zM128.17 18.5a1.28 1.28 0 112.55 0v12.33l12.84-13.17a1.48 1.48 0 011-.45 1.28 1.28 0 011.23 1.26 1.29 1.29 0 01-.42.9l-8 7.92L146 37.85a1.44 1.44 0 01.35.94 1.31 1.31 0 01-1.35 1.28 1.21 1.21 0 01-1-.58L135.59 29l-4.87 4.86v4.9a1.27 1.27 0 11-2.54 0V18.5z"/><path fill="#d22856" d="M60.46 28L55.29 6.65C54.93 4.3 52.69 0 46.69 0a1.5 1.5 0 000 3c4.85 0 5.57 3.73 5.64 4.14l4.76 19.7H55a12 12 0 00-23.85 0h-1.8a12 12 0 00-23.86 0H3.42l4.77-19.7C8.25 6.73 9 3 13.83 3a1.5 1.5 0 000-3c-6 0-8.24 4.3-8.6 6.65L.05 28a1.42 1.42 0 001.43 1.82h4a12 12 0 0023.85 0h1.81a12 12 0 0023.86 0h4A1.41 1.41 0 0060.46 28zm-34.15 1.84a9 9 0 01-17.92-1.5 9.29 9.29 0 01.13-1.5 9 9 0 0117.79 0 8.29 8.29 0 01.14 1.5 8.12 8.12 0 01-.14 1.5zm25.68 0a9 9 0 01-17.93-1.5 9.3 9.3 0 01.14-1.5 9 9 0 0117.79 0 9.3 9.3 0 01.14 1.5 9.09 9.09 0 01-.13 1.5z"/></g></g></symbol><symbol viewBox="0 0 154.38 195.33" id="html-academy-logo" xmlns="http://www.w3.org/2000/svg"><defs><style>.hcls-1{stroke:#231f20;stroke-miterlimit:10}</style></defs><g id="hСлой_2" data-name="Слой 2"><path class="hcls-1" d="M78 .59L77.19.5.5 8.54v140.57l76.69 45.63 76.69-45.63V8.54zm65.85 142.82l-66.66 39.66-66.66-39.66V85.79l66.38 39.51.11 7.16-45.54-27.1-.06 7 45.71 27.47.11 7.35L31.54 120l-.06 7 45.71 27.47 46.15-27.61V97.1l20.56-12.28zm0-66.06l-18.29 10.74-8.42 5L77 69.17l-.06 7 34.31 20.41-.3.18-.74.43-4.88 2.81L77 83.16l-.06 7 22.36 13.3-5.3 3.48-.12.07L77 97.06l-.06 7L88 110.54l-11.29 6.78-66-39.26 66.11-39.75zm0-7l-67-39.51-66.32 39.47V17.58l66.66-7 66.66 7z" id="hLayer_1" data-name="Layer 1"/></g></symbol><symbol viewBox="0 0 146.3 40.37" id="logo-header-desktop" xmlns="http://www.w3.org/2000/svg"><g id="iСлой_2" data-name="Слой 2"><g id="iLayer_2" data-name="Layer 2"><path d="M71.87 18.66a1.29 1.29 0 011.26-1.29h7.18c5.09 0 8.44 2.71 8.44 7.15v.06c0 4.86-4.06 7.38-8.86 7.38h-5.47v6.82a1.28 1.28 0 11-2.55 0V18.66zm8.12 11c3.73 0 6.18-2 6.18-5v-.06c0-3.22-2.41-4.89-6-4.89h-5.7v9.91zM93.6 18.5a1.28 1.28 0 112.55 0v20.28a1.28 1.28 0 11-2.55 0zM102.74 18.53a1.28 1.28 0 011.26-1.25h.35a1.55 1.55 0 011.29.74l13.69 17.45v-17a1.24 1.24 0 112.48 0v20.35a1.14 1.14 0 01-1.16 1.18h-.13a1.71 1.71 0 01-1.32-.78l-14-17.86v17.46a1.26 1.26 0 01-1.2 1.25 1.24 1.24 0 01-1.22-1.25V18.53zM128.17 18.5a1.28 1.28 0 112.55 0v12.33l12.84-13.17a1.48 1.48 0 011-.45 1.28 1.28 0 011.23 1.26 1.29 1.29 0 01-.42.9l-8 7.92L146 37.85a1.44 1.44 0 01.35.94 1.31 1.31 0 01-1.35 1.28 1.24 1.24 0 01-1-.58L135.58 29l-4.86 4.86v4.9a1.27 1.27 0 11-2.54 0V18.5z"/><path fill="#d22856" d="M98.5 9.87a3.63 3.63 0 01-3.63-3.62 3.62 3.62 0 01-3.62 3.62 3.63 3.63 0 013.62 3.63 3.64 3.64 0 013.63-3.63z"/><path d="M43.09 19.31h.73a2.48 2.48 0 00-2.13-1.23 2 2 0 01-1.89-1.35 12.09 12.09 0 00-2.09.82h.19a2 2 0 012 2 2.83 2.83 0 010 .29 8.8 8.8 0 013.19-.53z"/><path d="M60.46 28L55.29 6.65C54.93 4.3 52.69 0 46.69 0a1.5 1.5 0 000 3c4.85 0 5.57 3.73 5.64 4.14l4.76 19.7H55a12 12 0 00-5.3-8.52 2.5 2.5 0 00-1.53 2.3 2.06 2.06 0 010 .26 9.21 9.21 0 014 7.47 9.3 9.3 0 01-.14 1.5 9 9 0 01-17.79 0 9.3 9.3 0 01-.14-1.5 9.34 9.34 0 01.95-4 2 2 0 01-1.86-2 .71.71 0 00-.19-.49 11.84 11.84 0 00-1.79 5h-1.86a12 12 0 00-23.86 0H3.42L8.19 7.14C8.25 6.73 9 3 13.83 3a1.5 1.5 0 000-3c-6 0-8.24 4.3-8.6 6.65L.05 28a1.42 1.42 0 001.43 1.82h4a12.65 12.65 0 00.38 1.83.75.75 0 00.1-.36 2 2 0 012-2 1.85 1.85 0 01.48.07 9.1 9.1 0 01-.07-1.05 9.29 9.29 0 01.13-1.5 9 9 0 0117.8 0 9.29 9.29 0 01.13 1.5 9.06 9.06 0 01-9 9A9 9 0 0112 35.58a2 2 0 01-1.3.49.75.75 0 00-.74.75 2 2 0 01-.18.81 11.91 11.91 0 007.61 2.74 12 12 0 0011.96-10.52h1.82a12 12 0 0023.85 0h4A1.41 1.41 0 0060.46 28z"/><path fill="#d22856" d="M50.69 16.12a4.49 4.49 0 01-4.5-4.49 4.5 4.5 0 01-4.5 4.49 4.51 4.51 0 014.5 4.5 4.5 4.5 0 014.5-4.5zM37.9 19.63a2.75 2.75 0 01-2.75-2.75 2.75 2.75 0 01-2.74 2.75 2.74 2.74 0 012.74 2.74 2.75 2.75 0 012.75-2.74zM10.73 34.07A2.75 2.75 0 018 31.32a2.75 2.75 0 01-2.74 2.75A2.75 2.75 0 018 36.82a2.75 2.75 0 012.73-2.75z"/></g></g></symbol><symbol viewBox="0 0 74.4 22.9" id="logo-header-mobile" xmlns="http://www.w3.org/2000/svg"><path d="M0 1.4C0 .7.6.1 1.3.1h7.2c5.1 0 8.4 2.7 8.4 7.1v.1c0 4.9-4.1 7.4-8.9 7.4H2.5v6.8c0 .7-.6 1.3-1.3 1.3-.7 0-1.3-.6-1.3-1.3V1.4zm8.1 11c3.7 0 6.2-2 6.2-5 0-3.2-2.4-4.9-6.1-4.9H2.5v9.9h5.6zM21.7 1.3c0-.7.6-1.3 1.3-1.3.7 0 1.3.6 1.3 1.3v20.3c0 .7-.6 1.3-1.3 1.3-.7 0-1.3-.6-1.3-1.3V1.3zM30.9 1.3c0-.7.6-1.3 1.3-1.3h.4c.6 0 .9.3 1.3.7l13.7 17.4v-17C47.5.6 48 0 48.7 0c.7 0 1.2.6 1.2 1.3v20.3c0 .7-.5 1.2-1.2 1.2h-.1c-.5 0-.9-.3-1.3-.8l-14-17.9v17.5c0 .7-.5 1.3-1.3 1.3-.7 0-1.2-.6-1.2-1.3V1.3zM56.3 1.3c0-.7.6-1.3 1.3-1.3.7 0 1.3.6 1.3 1.3v12.3L71.7.5c.3-.3.6-.5 1-.5.7 0 1.2.6 1.2 1.3 0 .4-.2.6-.4.9l-8 7.9 8.6 10.6c.2.3.4.5.4.9 0 .7-.6 1.3-1.3 1.3-.5 0-.8-.3-1-.6l-8.4-10.5-4.9 4.9v4.9c0 .7-.6 1.3-1.3 1.3-.7 0-1.3-.6-1.3-1.3V1.3z"/></symbol><symbol viewBox="0 0 146.3 40.38" id="logo-header-tablet" xmlns="http://www.w3.org/2000/svg"><g data-name="Слой 2"><g data-name="Layer 1"><path class="kcls-1" d="M71.87 18.66a1.29 1.29 0 011.26-1.29h7.18c5.09 0 8.44 2.71 8.44 7.15v.06c0 4.86-4.06 7.38-8.86 7.38h-5.47v6.82a1.28 1.28 0 11-2.55 0V18.66zm8.12 11c3.73 0 6.18-2 6.18-5v-.06c0-3.22-2.41-4.89-6-4.89h-5.7v9.91zM93.6 18.5a1.28 1.28 0 112.55 0v20.28a1.28 1.28 0 11-2.55 0zM102.74 18.53a1.28 1.28 0 011.26-1.25h.35a1.55 1.55 0 011.29.74l13.69 17.45v-17a1.24 1.24 0 112.48 0v20.35a1.14 1.14 0 01-1.16 1.18h-.13a1.71 1.71 0 01-1.32-.78l-14-17.86v17.46a1.26 1.26 0 01-1.2 1.25 1.24 1.24 0 01-1.22-1.25V18.53zM128.17 18.5a1.28 1.28 0 112.55 0v12.33l12.84-13.17a1.48 1.48 0 011-.45 1.28 1.28 0 011.23 1.26 1.29 1.29 0 01-.42.9l-8 7.92L146 37.85a1.44 1.44 0 01.35.94 1.31 1.31 0 01-1.35 1.28 1.24 1.24 0 01-1-.58L135.58 29l-4.86 4.86v4.9a1.27 1.27 0 11-2.54 0V18.5zM60.46 28L55.29 6.65C54.93 4.3 52.69 0 46.69 0a1.5 1.5 0 000 3c4.85 0 5.57 3.73 5.64 4.14l4.76 19.7H55a12 12 0 00-23.85 0h-1.8a12 12 0 00-23.86 0H3.42l4.77-19.7C8.25 6.73 9 3 13.83 3a1.5 1.5 0 000-3c-6 0-8.24 4.3-8.6 6.65L.05 28a1.42 1.42 0 001.43 1.82h4a12 12 0 0023.85 0h1.81a12 12 0 0023.86 0h4A1.41 1.41 0 0060.46 28zm-34.15 1.84a9 9 0 01-17.92-1.5 9.29 9.29 0 01.13-1.5 9 9 0 0117.79 0 8.29 8.29 0 01.14 1.5 8.12 8.12 0 01-.14 1.5zm25.68 0a9 9 0 01-17.93-1.5 9.3 9.3 0 01.14-1.5 9 9 0 0117.79 0 9.3 9.3 0 01.14 1.5 9.09 9.09 0 01-.13 1.5z"/></g></g></symbol><symbol viewBox="0 0 35.98 35.98" id="map-marker" xmlns="http://www.w3.org/2000/svg"><defs><style>.lcls-1{fill:#fff}.lcls-2{fill:#d22856}</style></defs><g id="lСлой_2" data-name="Слой 2"><g id="lLayer_1" data-name="Layer 1"><path class="lcls-1" d="M18 0A18 18 0 110 18 18 18 0 0118 0z"/><path class="lcls-2" d="M18 10.12A7.87 7.87 0 1110.12 18 7.88 7.88 0 0118 10.12z"/></g></g></symbol><symbol viewBox="0 0 43.92 41.99" id="microsoft-logo" xmlns="http://www.w3.org/2000/svg"><path fill="#f05423" d="M20.87 20H0V0h20.87z"/><path fill="#84c441" d="M43.92 20H23.05V0h20.87z"/><path fill="#2dabe2" d="M20.87 42H0V22h20.87z"/><path fill="#f9bc15" d="M43.92 42H23.05V22h20.87z"/></symbol><symbol viewBox="0 0 26.75 26.75" id="price-no-icon" xmlns="http://www.w3.org/2000/svg"><g data-name="Слой 2"><path fill="#f25b26" d="M15.5 13.38L26.31 2.56a1.49 1.49 0 000-2.12 1.51 1.51 0 00-2.12 0L13.38 11.26 2.56.44a1.49 1.49 0 00-2.12 0 1.51 1.51 0 000 2.12l10.82 10.82L.44 24.19a1.49 1.49 0 000 2.12 1.5 1.5 0 002.12 0L13.38 15.5l10.81 10.81a1.51 1.51 0 001.06.44 1.5 1.5 0 001.06-2.56z" data-name="Layer 1"/></g></symbol><symbol viewBox="0 0 30.37 21.69" id="price-yes-icon" xmlns="http://www.w3.org/2000/svg"><g data-name="Слой 2"><path fill="#3dc644" d="M29.94.44a1.5 1.5 0 00-2.13 0L10.19 18.07l-7.63-7.63a1.5 1.5 0 00-2.12 2.12l8.69 8.69a1.49 1.49 0 001.06.44 1.51 1.51 0 001.06-.44L29.94 2.56a1.51 1.51 0 000-2.12z" data-name="Layer 1"/></g></symbol><symbol viewBox="0 0 78.67 63.79" id="quotes-desktop" xmlns="http://www.w3.org/2000/svg"><g data-name="Слой 2"><g data-name="Layer 1"><path d="M35 7.06L30.71 0C28.27 1.5 0 12.21 0 39.62c0 7.23.34 24.17 18.9 24.17 11.19 0 13.94-10.28 13.94-13.59 0-22-21.38-14.17-21.38-14.17C11.46 18 31.26 9.18 35 7.06zM78.67 7.06L74.42 0C72 1.5 43.7 12.21 43.7 39.62c0 7.23.34 24.17 18.91 24.17 11.18 0 13.93-10.28 13.93-13.59 0-22-21.38-14.17-21.38-14.17C55.16 18 75 9.18 78.67 7.06z"/></g></g></symbol><symbol viewBox="0 0 253 253" id="round-diagram-desktop" xmlns="http://www.w3.org/2000/svg"><defs><style>.qcls-1{fill:#231f20}</style></defs><g id="qСлой_2" data-name="Слой 2"><path class="qcls-1" d="M126.5 0A126.5 126.5 0 10253 126.5 126.51 126.51 0 00126.5 0zm0 237.22a110.17 110.17 0 11110.17-110.17A110.18 110.18 0 01126.5 237.22z" id="qLayer_1" data-name="Layer 1"/></g></symbol><symbol viewBox="0 0 298 345.1" id="timer-desktop" xmlns="http://www.w3.org/2000/svg"><g data-name="Слой 2"><path d="M264.57 102.06l5.35-5.36c7.72-7.72 9.13-18.94 3.13-24.93s-17.22-4.6-24.93 3.12l-5.39 5.39A148.19 148.19 0 00168 48.3v-9.59h7.66c10.91 0 19.84-8.71 19.84-19.35S186.57 0 175.66 0h-53.32c-10.91 0-19.84 8.71-19.84 19.36s8.93 19.35 19.84 19.35H130v9.59a149 149 0 10134.57 53.76zM149 306.26A110.17 110.17 0 11259.17 196.1 110.17 110.17 0 01149 306.26z" data-name="Layer 1"/></g></symbol><symbol viewBox="0 0 298 345.1" id="timer-tablet" xmlns="http://www.w3.org/2000/svg"><g data-name="Слой 2"><path d="M264.57 102.06l5.35-5.36c7.72-7.72 9.13-18.94 3.13-24.93s-17.22-4.6-24.93 3.12l-5.39 5.39A148.19 148.19 0 00168 48.3v-9.59h7.66c10.91 0 19.84-8.71 19.84-19.35S186.57 0 175.66 0h-53.32c-10.91 0-19.84 8.71-19.84 19.36s8.93 19.35 19.84 19.35H130v9.59a149 149 0 10134.57 53.76zM149 306.26A110.17 110.17 0 11259.17 196.1 110.17 110.17 0 01149 306.26z" data-name="Layer 1"/></g></symbol><symbol viewBox="0 0 595.28 61.91" id="triangle-white-contacts-desktop" xmlns="http://www.w3.org/2000/svg"><defs><style>.tcls-1{fill:#231f20}</style></defs><g id="tСлой_2" data-name="Слой 2"><path class="tcls-1" d="M297.64 61.91L0 0h595.28L297.64 61.91z" id="tLayer_1" data-name="Layer 1"/></g></symbol><symbol viewBox="0 0 595.28 61.91" id="triangle-white-contacts-mobile" xmlns="http://www.w3.org/2000/svg"><defs><style>.ucls-1{fill:#231f20}</style></defs><g id="uСлой_2" data-name="Слой 2"><path class="ucls-1" d="M297.64 61.91L0 0h595.28L297.64 61.91z" id="uLayer_1" data-name="Layer 1"/></g></symbol><symbol viewBox="0 0 595.28 61.91" id="triangle-white-contacts-tablet" xmlns="http://www.w3.org/2000/svg"><defs><style>.vcls-1{fill:#231f20}</style></defs><g id="vСлой_2" data-name="Слой 2"><path class="vcls-1" d="M297.64 61.91L0 0h595.28L297.64 61.91z" id="vLayer_1" data-name="Layer 1"/></g></symbol><symbol viewBox="0 0 17.5 14.66" id="twitter" xmlns="http://www.w3.org/2000/svg"><g data-name="Слой 2"><path d="M11.28.15A3.31 3.31 0 0115 1.3c.69-.22 1.37-.47 2.07-.69a2.27 2.27 0 01-.88 1.73 1.62 1.62 0 001.34-.48 2.89 2.89 0 01-1.61 2c-.24 6.59-3.27 11-10.38 10.82h-.49c-.42 0-4.29-.45-5-1.84a6.64 6.64 0 004.84-1.15c-1-.3-2.77-.47-3.07-2.88A2.13 2.13 0 003 8.9C1.76 8.07.38 7.37.46 5.22a2 2 0 001.38.46C1.12 5.44-.19 2.4.92.84c1.87 1.81 3.85 3.52 7.37 3.69C8.51 2.29 9.46.79 11.28.15z" data-name="Layer 1"/></g></symbol><symbol viewBox="0 0 14.64 13.96" id="youtube" xmlns="http://www.w3.org/2000/svg"><g data-name="Слой 2"><path d="M1.78 13.78A1.14 1.14 0 010 12.67V1.29A1.14 1.14 0 011.78.18l12.13 5.93c1 .48 1 1.26 0 1.74z" data-name="Layer 1"/></g></symbol><symbol viewBox="22.5 69 253 253" id="round-diagram-fill"><path fill="#d22856" d="M149,69C79.1,69,22.5,125.7,22.5,195.5C22.5,265.4,79.1,322,149,322s126.5-56.6,126.5-126.5C275.5,125.7,218.9,69,149,69z M149,306.3c-60.8,0-110.2-49.3-110.2-110.2c0-60.8,49.3-110.2,110.2-110.2c60.8,0,110.2,49.3,110.2,110.2C259.2,256.9,209.8,306.3,149,306.3z"/></symbol><symbol viewBox="0 0 298 345.1" id="timer"><path fill="#dedede" d="M264.6,102.1l5.4-5.4c7.7-7.7,9.1-18.9,3.1-24.9c-6-6-17.2-4.6-24.9,3.1l-5.4,5.4c-21-17-46.6-28.4-74.7-32v-9.6h7.7c10.9,0,19.8-8.7,19.8-19.4S186.6,0,175.7,0h-53.3c-10.9,0-19.8,8.7-19.8,19.4s8.9,19.4,19.8,19.4h7.7v9.6C56.7,57.6,0,120.2,0,196.1c0,82.3,66.7,149,149,149c82.3,0,149-66.7,149-149C298,160.4,285.5,127.7,264.6,102.1z M149,306.3c-60.8,0-110.2-49.3-110.2-110.2c0-60.8,49.3-110.2,110.2-110.2c60.8,0,110.2,49.3,110.2,110.2C259.2,256.9,209.8,306.3,149,306.3z"/></symbol></svg>